<svg version="1.0" xmlns="http://www.w3.org/2000/svg" width="1824" height="269.3" viewBox="0 0 1368 202" fill="white">
  <path d="m149 3-5 3H6v2c0 2 1 3 5 3 9 2 19 5 23 9 2 2 4 12 4 27l1 15 6 7 6 8 1 3-2-3-10-5-1 44c-1 49-2 60-6 68-3 8-8 10-28 13-5 0-6 3-1 4h55l1-7a422 422 0 0 1 3-7v14h92l7-22a605 605 0 0 0 5-23c-1-1-2 1-5 5-8 17-20 24-45 28-11 1-25 1-33-2-6-1-10-6-12-13-2-6-3-28-3-48v-18h60l3 6 4 12 3 5c2 1 2 0 2-23 1-36 1-35-1-36s-2 0-4 7-4 11-9 13c-4 2-8 2-31 2H69l1-24 1-38V19h20c24 0 41 2 47 5 6 2 9 7 10 16 1 5 2 7 4 7l3-44-1-3-5 3zM1263 8c-23 3-47 16-61 33-5 6-5 6-5 12l1 5-2-3-3-2-3 5-5 12-2 6 3 2c2 3 2 3-2 4-2 0-3 0-3 4-2 12-1 29 3 44a87 87 0 0 0 41 50l5-4c4-3 5-3 5 3 0 2-1 3-2 3-2 1-2 1-1 2 2 2 4 1 4 0v-3l2-2 1-1v3l-1 7c0 3 0 4 2 4l2-1c1-2 2-2 9 0 16 4 33 5 53 1l46-10c3 0 2-4 0-4l-6-1-3-1v-54l4-3c3-3 6-4 9-5 5-1 6-2 6-3 0-2-1-2-22-2l-24 1h-1l-14-1c-12 0-13 0-13 2l4 3 12 3c14 4 14 6 13 40 0 22 0 23-2 24l-20 2c-13 0-24-2-37-8-6-3-7-4-15-11a95 95 0 0 1-27-54l-1-7v-6l-1-3-2-6c-2-2-2-3 1-2s4 0 4-5c0-4 4-18 7-25 7-14 17-25 29-31 27-13 65-7 75 11 3 4 6 15 7 23l3 4a487 487 0 0 1 6-51c0-3-3-3-5 0-2 2-3 2-18 0-21-5-40-6-56-4zm-75 113c-3 6-4 7-3 3l6-8-3 5zM1355 12v1l1 3c0 1 0 2 1 1l1-2 1-2 1 2 1 4 1-1h1c1 1 2 0 3-2v-4h-11zM538 32l-29 1c-25 0-26 0-25 2 1 1 1 1-1 1-4-2-18-3-32-3-13 0-14 0-14 2 0 1 1 2 5 2l9 3c9 4 8 3 9 51 0 46-1 63-4 69-2 4-7 7-15 8-7 1-10 3-6 4h108l5-15 5-16-1-1-4 4-6 8-5 8v4l-1-3v-3l-9 3c-6 2-9 2-20 2-14 0-19-1-22-6-1-3-3-23-3-40v-11h20l22 1 4 8c2 5 3 8 5 8l1-9a339 339 0 0 1-2-34l-2 3-2 6c-3 6-6 7-27 7h-19V85l1-26V43h21a184 184 0 0 0 23 0l4 3c4 2 7 7 7 12 0 3 2 6 3 5l2-26c0-8-1-8-5-5zM786 34c1 1 2 2 6 2 6 1 9 3 11 6l1 39 1 38-1 43c-1 4-5 6-10 7-3 0-5 1-5 2s-1 1 21 2c32 0 43-2 28-5l-8-4c-2-2-2 1-3-43l-1-9h18l18 24c20 26 24 31 31 34 4 2 19 3 26 2 5 0 5 0 4-3l-5-3c-7-3-16-12-42-44l-11-11c-2 0-1-1 4-3 7-3 16-9 16-11l2-3 6-8c3-7 4-8 4-19 0-9-1-11-3-15-3-8-11-14-24-18l-45-2c-40 0-40 0-39 2zm74 10c6 1 10 6 12 12l2 13c0 13-1 17-7 23-7 7-15 9-29 9l-11-1V74c0-26 0-26 2-28 3-4 4-4 17-4 7 0 11 0 14 2zm-47 76-1 1h-2l2-1h1zm6 1-1 2v-2l1-1v1zM182 34h-5c-7 0-7 2 0 3 6 1 11 4 13 7s3 31 3 70c-1 33-2 43-5 48-1 2-6 5-13 6l-6 3 54 1 55-1 11-34c-2-2-3-1-6 6-5 9-10 14-16 17-15 6-41 5-49-3l-3-3v-52c1-49 1-52 3-56s8-8 16-9c4 0 5-1 5-2 0-2-1-2-28-2l-29 1z"/>
  <path d="M289 35c0 1 1 2 5 2 6 1 12 4 15 6 4 4 4 10 4 58 0 53 0 56-6 61-3 4-6 5-17 6l-4 2c0 1 7 2 33 3 53 1 63 0 78-6 16-6 31-20 38-35 5-10 7-19 7-31 0-32-20-55-56-65-9-2-10-2-53-3-43 0-44 0-44 2zm77 9c11 3 21 8 29 17 8 7 13 14 17 25 2 6 2 8 2 20 0 21-3 33-14 45-15 16-46 20-60 7l-4-3v-53l1-57 1-4h10l18 3zM560 35c0 1 2 2 7 3 7 2 13 5 19 11l3 4v33c0 53-2 74-6 78l-10 3c-14 3-12 5 8 5 21 1 44 0 44-2l-6-2-11-3c-7-3-7-5-8-56V66l36 38 50 55c13 14 17 17 18 17l3-1 1-63c0-57 0-63 2-66 2-4 6-7 15-8 5-1 6-2 6-3 0-2-2-2-31-2-28 0-30 0-30 2l8 3c11 3 13 4 14 8 2 5 4 28 4 62l1 28-11-10-63-68-13-15 2-2c1-1 4-3 7-3l4-3c0-2-2-2-32-2-29 0-31 0-31 2zM932 35c0 1 1 2 5 2l9 3c6 1 7 1 7-4h1v10c1 5 1 8-2 7l-1 1h5l2 3 3 6v5c0 3 0 3-2 3h-3l2 4c0 2 2 4 3 5 2 1 1 3-1 5s-3 4-3 10 0 7 1 6l1 2v5c-2 2-3 29-2 31v2l-1 8c-1 5-1 7 1 9 1 2 1 2-1 2-1-1-2 0-4 2-2 3-8 5-16 6-7 2-3 4 6 4a110 110 0 0 0 25-1l19 1 18-1c0-1-2-2-7-3-11-2-17-7-17-14l-2-2v-1l1-25c0-26 0-26-5-26l-3-1 4-4 4-3V72c1-29 2-32 19-34 5-1 6-2 6-3 0-2-2-2-36-2s-36 0-36 2zm38 64c0 2-4 3-6 2-1 0-1-1 1-1l5-1zm-6 67-2 2c-1 1-1 1 0 0l2-2zM1017 35c0 1 1 2 5 2 5 1 11 4 17 9 7 6 7 5 7 29v21h11V65l5 5a6073 6073 0 0 1 77 85c20 21 20 21 23 21 2-1 2-1 2-12l-1-12c-2-1-2-5 0-6v-9l1-23c1-1 1-2-1-3-1-1-1-2 1-3v-4c-1-3 0-4 2-2h1c2-2 1-6-1-9-1-1-1-1-1 2 1 2 1 3-1 3h-2l-2-2c-1-2-1-4 1-3v-1c-3-2-2-3 0-2h3V70c1-24 2-26 9-29l9-6c0-2-2-2-27-2-26 0-28 0-28 2l7 3c14 3 15 5 17 16s3 79 2 81c-1 0-4-2-7-6l-7-6-2-2-8-10c-21-22-20-22-24-22-3 0-4-1-1-2 2-1 0-5-3-6l-3-2c0-2-5-7-10-12-22-24-21-24-20-26l7-3 5-3c0-2-2-2-31-2-31 0-32 0-32 2zm80 51-2 1-3-1 2-1 3 1z"/>
  <path d="m945 52 1 1 1-1-1-1-1 1zM950 57c0 2 1 2 3 2 3 0 2-2-1-3l-2 1zM957 61l1 3 1-2-1-2-1 1zM1047 98l-2 28c-1 27-2 33-5 37-2 2-8 4-16 5-4 1-5 3-2 4l30 1 30-2-3-3c-9-1-15-3-17-5-4-3-4-9-5-37 0-29 0-29-7-29l-4 1z"/>
</svg>
